<svg width="65" height="30" viewBox="0 0 69 30" fill="none" xmlns="http://www.w3.org/2000/svg">
<path fill-rule="evenodd" clip-rule="evenodd" d="M21 0H22V28H49V29H22V30H21V29H19V28H21V0ZM33.5 26H31.5C31.224 26 31 25.775 31 25.5V14.5C31 14.224 31.224 14 31.5 14H33.5C33.776 14 34 14.224 34 14.5V25.5C34 25.775 33.776 26 33.5 26ZM32 25H33V15H32V25ZM25.5 26H27.5C27.776 26 28 25.775 28 25.5V19.5C28 19.225 27.776 19 27.5 19H25.5C25.224 19 25 19.225 25 19.5V25.5C25 25.775 25.224 26 25.5 26ZM27 25H26V20H27V25ZM39.5 26H37.5C37.225 26 37 25.775 37 25.5V19.5C37 19.225 37.225 19 37.5 19H39.5C39.775 19 40 19.225 40 19.5V25.5C40 25.775 39.775 26 39.5 26ZM38 25H39V20H38V25ZM43.5 26H45.5C45.775 26 46 25.775 46 25.5V13.5C46 13.224 45.775 13 45.5 13H43.5C43.225 13 43 13.224 43 13.5V25.5C43 25.775 43.225 26 43.5 26ZM45 25H44V14H45V25ZM23.832 17.644C23.931 17.762 24.071 17.823 24.214 17.823C24.328 17.823 24.442 17.785 24.539 17.703L32.936 10.605L37.56 15.24C37.654 15.333 37.781 15.386 37.914 15.386C38.046 15.386 38.173 15.334 38.268 15.239L45.872 7.569C46.067 7.373 46.064 7.056 45.869 6.862C45.674 6.668 45.355 6.669 45.162 6.865L37.911 14.178L33.317 9.574C33.133 9.389 32.839 9.378 32.64 9.545L23.891 16.941C23.68 17.119 23.654 17.435 23.832 17.644Z" fill="white"/>
</svg>
